<svg width="1278" height="418" viewBox="0 0 1278 418" fill="none" xmlns="http://www.w3.org/2000/svg">
<mask id="path-1-outside-1_17_93" maskUnits="userSpaceOnUse" x="0" y="0" width="1278" height="418" fill="black">
<rect fill="white" width="1278" height="418"/>
<path fill-rule="evenodd" clip-rule="evenodd" d="M1249.08 8H28.9166V27.5232H8V390.477H28.9166V410H1249.08V390.477H1270V27.5232H1249.08V8Z"/>
</mask>
<path d="M28.9166 8V0H20.9166V8H28.9166ZM1249.08 8H1257.08V0H1249.08V8ZM28.9166 27.5232V35.5232H36.9166V27.5232H28.9166ZM8 27.5232V19.5232H0V27.5232H8ZM8 390.477H0V398.477H8V390.477ZM28.9166 390.477H36.9166V382.477H28.9166V390.477ZM28.9166 410H20.9166V418H28.9166V410ZM1249.08 410V418H1257.08V410H1249.08ZM1249.08 390.477V382.477H1241.08V390.477H1249.08ZM1270 390.477V398.477H1278V390.477H1270ZM1270 27.5232H1278V19.5232H1270V27.5232ZM1249.08 27.5232H1241.08V35.5232H1249.08V27.5232ZM28.9166 16H1249.08V0H28.9166V16ZM36.9166 27.5232V8H20.9166V27.5232H36.9166ZM8 35.5232H28.9166V19.5232H8V35.5232ZM16 390.477V27.5232H0V390.477H16ZM28.9166 382.477H8V398.477H28.9166V382.477ZM36.9166 410V390.477H20.9166V410H36.9166ZM1249.08 402H28.9166V418H1249.08V402ZM1241.08 390.477V410H1257.08V390.477H1241.08ZM1270 382.477H1249.08V398.477H1270V382.477ZM1262 27.5232V390.477H1278V27.5232H1262ZM1249.08 35.5232H1270V19.5232H1249.08V35.5232ZM1241.08 8V27.5232H1257.08V8H1241.08Z" fill="black" mask="url(#path-1-outside-1_17_93)"/>
</svg>
