<svg id="Layer_1" version="1.1" viewBox="0 0 100 100" xml:space="preserve" xmlns="http://www.w3.org/2000/svg" enable-background="new 0 0 100 100"><path d="M37.1 57.7c2.6 4.5 7.5 7.4 12.9 7.4s10.2-2.9 12.9-7.4c13.9.3 21.9 1 26 1.6C84.7 77.1 68.7 90.1 50 90.1S15.3 77.2 11.1 59.4c4.1-.7 12.1-1.4 26-1.7m3.2-5.1c-17.2.3-32.5 1.3-35 3.1C8.2 77.9 27.1 95.1 50 95.1c22.9 0 41.8-17.1 44.6-39.3-2.5-1.8-17.7-2.8-35-3.1-1.1 4.3-5 7.4-9.7 7.4-4.5 0-8.4-3.2-9.6-7.5z" fill="#ff2b2b" class="fill-000000"></path><circle cx="50" cy="50.1" r="7" fill="#ff2b2b" class="fill-000000"></circle><path d="M50 4.9C25.1 4.9 5 25 5 49.9V51c.2-.7 2-1.2 5-1.7.3-20.9 16.7-38.8 37.3-40.3 1.4-.1 2.7 1.1 2.7 2.5 0 1.3-1 2.4-2.3 2.5C29.5 15.2 15.1 30.3 15 48.7c6.5-.6 15.6-1 25.3-1.2 1.1-4.4 5-7.6 9.7-7.6 4.7 0 8.6 3.2 9.7 7.6 18.5.3 34.8 1.5 35.3 3.6V50C95 25.1 74.9 4.9 50 4.9z" fill="#ff2b2b" class="fill-000000"></path></svg>